<svg width="32" height="32" viewBox="0 0 32 32" fill="none" xmlns="http://www.w3.org/2000/svg">
  <rect width="32" height="32" rx="8" fill="url(#gradient)"/>
  <path d="M16 8C20.4183 8 24 11.5817 24 16C24 20.4183 20.4183 24 16 24C11.5817 24 8 20.4183 8 16C8 11.5817 11.5817 8 16 8Z" fill="white" fill-opacity="0.2"/>
  <path d="M16 11C14.3431 11 13 12.3431 13 14H15C15 13.4477 15.4477 13 16 13C16.5523 13 17 13.4477 17 14C17 14.5523 16.5523 15 16 15H15V17H16C16.5523 17 17 17.4477 17 18C17 18.5523 16.5523 19 16 19C15.4477 19 15 18.5523 15 18H13C13 19.6569 14.3431 21 16 21C17.6569 21 19 19.6569 19 18C19 17.1716 18.5978 16.4433 18 15.9375C18.5978 15.4317 19 14.7034 19 13.875C19 12.2877 17.6569 11 16 11Z" fill="white"/>
  <defs>
    <linearGradient id="gradient" x1="0" y1="0" x2="32" y2="32" gradientUnits="userSpaceOnUse">
      <stop stop-color="#0ea5e9"/>
      <stop offset="1" stop-color="#f7931a"/>
    </linearGradient>
  </defs>
</svg>